<mxfile host="app.diagrams.net" modified="2023-05-26T05:08:26.731Z" agent="Mozilla/5.0 (Windows NT 10.0; Win64; x64) AppleWebKit/537.36 (KHTML, like Gecko) Chrome/110.0.0.0 Safari/537.36" version="21.1.5" etag="qkNhwYHDXlOjmzf4cXP2" type="github">
  <diagram name="第 1 页" id="Jp9oh_LbWL6eDo0E04jF">
    <mxGraphModel>
      <root>
        <mxCell id="0" />
        <mxCell id="1" parent="0" />
      </root>
    </mxGraphModel>
  </diagram>
</mxfile>
